/* XPM */
static const char *bluegrad10[] = {
/* bluegrad10.xpm */
"10 10 4 1 ",
"A c #001040",
"B c #002080",
"C c #0030C0",
"D c #0040FF",
/* pixels */
"AAAABBBBCC",
"AAAABBBBCC",
"AAAABBBBCC",
"AAAABBBBCC",
"BBBCCCCDDD",
"BBBCCCCDDD",
"BBBCCCCDDD",
"BBBCCCCDDD",
"CCCCDDDDAA",
"CCCCDDDDAA"
};
