/* XPM */
static const char *tree[] = {
/* columns rows colors chars-per-pixel */
"64 64 84 1",
"% c #000000",
"s c #0000ff",
"r c #044bce",
"V c #0a4a24",
"5 c #0b331c",
"K c #0b5527",
"& c #11341c",
"! c #132f1c",
"O c #143c24",
"9 c #144225",
"b c #154b25",
"H c #154b2c",
"z c #15542b",
"T c #165428",
"2 c #186546",
"d c #186637",
"X c #1a602a",
"4 c #1b432d",
"I c #1b4c2c",
"f c #1b5b2d",
"v c #1c5433",
"B c #1c6434",
"8 c #1d3b2a",
"w c #1d5d33",
"7 c #223f2c",
"W c #225b35",
"F c #225b39",
"- c #233528",
"E c #236539",
"c c #24492e",
"G c #244c32",
"g c #245533",
"0 c #246c44",
"D c #256b3b",
"C c #257447",
"u c #265239",
"6 c #274936",
"o c #295e46",
"+ c #2a3425",
"? c #2b321d",
"N c #2b5c41",
"n c #2b6447",
"h c #2b6b42",
"A c #2b6c3d",
"U c #2b724a",
"t c #2c5b3c",
"x c #2c653b",
"e c #31633c",
"y c #326c44",
"a c #336a4b",
"P c #337342",
"m c #33734b",
". c #343c2a",
"( c #36391d",
"= c #364434",
"> c #367b49",
"^ c #373927",
"Q c #38593b",
"S c #38663c",
"p c #386b51",
"< c #394326",
"k c #3b734c",
"M c #3c7c53",
"Y c #3c8454",
"3 c #3d6543",
"1 c #3d825a",
"J c #447755",
"R c #457749",
"Z c #458856",
"l c #476853",
"$ c #484936",
"L c #4b8d62",
"' c #4c492c",
"* c #53b174",
") c #554639",
": c #58573d",
"_ c #5c5a47",
"[ c #625b4b",
"] c #63593b",
"@ c #684e43",
"j c #ff0000",
"i c #ff4726",
"# c #7f7f00",
"q c #7f7f40",
/* pixels */
"%%%%%%%%%%%%%%%%%%%%%%%%%%%%%%%%%%%%%%%%%%%%%%%%%%%%%%%%%%%%%%%%",
"%%%%%%%%%%%%%%%%%%%%%%%%%%%%%%%%#%%%##%%%%%%%%%%%%%%%%%%%%%%%%%%",
"%%%%%%%%%%%%%%%%%%%%%%%%%%%%%%%#%%%#%%#%%%%%%%%%%%%%%%%%%%%%%%%%",
"%%%%%%%%%%%%%%%%%%%%%%%%%%%%%%#%%#%%%%#%%%%%%%%%%%%%%%%%%%%%%%%%",
"%%%%%%%%%%%%%%%%%%%%%%%%%%%%%#%%#%%%%#%%%%%%%%%%%%%%%%%%%%%%%%%%",
"%%%%%%%%%%%%%%%%%%%%%%%%%%%%######%%#%%%%%%%%%%%%%%%%%%%%%%%%%%%",
"%%%%%%%%%%%%%%%%%%%%%%%%%%%%%%%#%%%#%%%%%%%%%%%%%%%%%%%%%%%%%%%%",
"%%%%%%%%%%%%%%%%%%%%%%%%%%%%%%#%%%#%%%%%%%%%%%%%%%%%%%%%%%%%%%%%",
"%%%%%%%%%%%%%%%%%%%%%%%%%%%%%#%%a%####%%%%%%%%%%%%%%%%%%%%%%%%%%",
"%%%%%%%%%%%%%%%%%%%%%%%%%%%%%%%aaa%%%%%%%%%%%%%%%%%%%%%%%%%%%%%%",
"%%%%%%%%%%%%%%%%%%%%%%%%%%%%%%abbca%%%%%%%%%%%%%%%%%%%%%%%%%%%%%",
"%%%%%%%%%%%%%%%%%%%%%%%%%%%%%addbaa%%%%%%%%%%%%%%%%%%%%%%%%%%%%%",
"%%%%%%%%%%%%%%%%%%%%%%%%%%%%%abdbbea%%%%%%%%%%%%%%%%%%%%%%%%%%%%",
"%%%%%%%%%%%%%%%%%%%%%%%%%%%%abbdbbaa%%%%%%%%%%%%%%%%%%%%%%%%%%%%",
"%%%%%%%%%%%%%%%%%%%%%%%%%%%%abdababfa%%%%%%%%%%%%%%%%%%%%%%%%%%%",
"%%%%%%%%%%%%%%%%%%%%%%%%%%%aaaabbdaaa%%%%%%%%%%%%%%%%%%%%%%%%%%%",
"%%%%%%%%%%%%%%%%%%%%%%%%%%abbgddgdaaaa%%%%%%%%%%%%%%%%%%%%%%%%%%",
"%%%%%%%%%%%%%%%%%%%%%%%%%%abgbbgdgbdba%%%%%%%%%%%%%%%%%%%%%%%%%%",
"%%%%%%%%%%%%%%%%%%%%%%%%%%abdggddbgbbha%%%%%%%%%%%%%%%%%%%%%%%%%",
"%%%%%%%%%%%%%%%%%%%%%%%%%abgdddiibdbada%%%%%%%%%%%%%%%%%%%%%%%%%",
"%%%%%%%%%%%%%%%%%%%%%%%%adggbdijjibdgaka%%%%%%%%%%%%%%%%%%%%%%%%",
"%%%%%%%%%%%%%%%%%%%%%%%%aagbbdijjibgddba%%%%%%%%%%%%%%%%%%%%%%%%",
"%%%%%%%%%%%%%%%%%%%%%%%aadgbdddiilgdaabma%%%%%%%%%%%%%%%%%%%%%%%",
"%%%%%%%%%%%%%%%%%%%%%%aaddgbddbnoggdggbdpa%%%%%%%%%%%%%%%%%%%%%%",
"%%%%%%%%%%%%%%%%%%%%%%aaadgdgdbddgddddbbba%%%%%%%%%%%%%%%%%%%%%%",
"%%%%%%%%%%%%%%%%%%%%%aadddddddgddgdddddddea%%%%%%%%%%%%%%%%%%%%%",
"%%%%%%%%%%%%%%%%%%%%%aaddqqddddddaaddrrdaaa%%%%%%%%%%%%%%%%%%%%%",
"%%%%%%%%%%%%%%%%%%%%aaadq##qdbbaddadrssraaa%%%%%%%%%%%%%%%%%%%%%",
"%%%%%%%%%%%%%%%%%%%aadgdq##qdbaadbgdrssrdama%%%%%%%%%%%%%%%%%%%%",
"%%%%%%%%%%%%%%%%%%adaggddqqdbbadbbgddrrdgdddaa%%%%%%%%%%%%%%%%%%",
"%%%%%%%%%%%%%%%%%%aaagddbddgdaddbggddgdgdggada%%%%%%%%%%%%%%%%%%",
"%%%%%%%%%%%%%%%%%%adggddbddgdadddgdadgdgdddbdta%%%%%%%%%%%%%%%%%",
"%%%%%%%%%%%%%%%%%%addbbdbddgdddddddddddddddbbda%%%%%%%%%%%%%%%%%",
"%%%%%%%%%%%%%%%%%%aubbvwxyxzvhyABCdddxDDwEFddGaa%%%%%%%%%%%%%%%%",
"%%%%%%%%%%%%%%%%%adgbdddhHdddgIJJbKmdyKgLMddddda%%%%%%%%%%%%%%%%",
"%%%%%%%%%%%%%%%%adddbdddddddddddddddgbdgddddddNOa%%%%%%%%%%%%%%%",
"%%%%%%%%%%%%%%%%adgdrrddbddbaddiidddgbgddqqgddataa%%%%%%%%%%%%%%",
"%%%%%%%%%%%%%%%adbgrssrdadbdddijjiddggaaq##qdaPGaa%%%%%%%%%%%%%%",
"%%%%%%%%%%%%%%aabbdrssrbadddddijjigggdaaq##qadbdaa%%%%%%%%%%%%%%",
"%%%%%%%%%%%%%%adbbddrrddbgdbbdQiiedddgbgaqqddabdda%%%%%%%%%%%%%%",
"%%%%%%%%%%%%%%%abdddddddagaabbdddddddgdgadddaabRa%%%%%%%%%%%%%%%",
"%%%%%%%%%%%%%%%aadddddbdagdaabddddaabdgdaddbbbdSa%%%%%%%%%%%%%%%",
"%%%%%%%%%%%%%%%%adbdTbbdUVgdaddaabdddggdadddddAaa%%%%%%%%%%%%%%%",
"%%%%%%%%%%%%%%%aWhKbbdzwEdDdXdaVdbYDKgZbfK012Vbaaa%%%%%%%%%%%%%%",
"%%%%%%%%%%%%%%aFdbbggaddddbddddddddbDddbbddddabgaa%%%%%%%%%%%%%%",
"%%%%%%%%%%%%%%adbdggaadddddddadddddbdggddddddabgdaa%%%%%%%%%%%%%",
"%%%%%%%%%%%%%addbggaqqddbbdddddrrddbdgbddiiddabgdda%%%%%%%%%%%%%",
"%%%%%%%%%%%%apaadgaq##qdbdddadrssrddgadbijjidbbbdda%%%%%%%%%%%%%",
"%%%%%%%%%%%%aadbbgdq##qdbdbbadrssrddgbabijjiagbgbda%%%%%%%%%%%%%",
"%%%%%%%%%%%%adadbdddqqddddddbbdrrdbaaggadiid3ggbdbbg%%%%%%%%%%%%",
"%%%%%%%%%%%gggbdddddddbbbddddbaadddaaabaaddddddbddag%%%%%%%%%%%%",
"%%%%%%%%%%%ggOgggggggdggOdbbbdddddddaabdddddddgddagg%%%%%%%%%%%%",
"%%%%%%%%%%ggO%OOObOOgOgggO45O6666784d4Ndguut9ggggOgg%%%%%%%%%%%%",
"%%%%%%%%%gOO%%%bb%%%bOOObb%%%..'@'+%%%bbggbb%%OggggOOg%%%%%%%%%%",
"%%%%%%%%%%%%%%%%%%%%%%OO%%%%.=$_@:$?%%%%OO%%%%%OO%%%OOg%%%%%%%%%",
"%%%%%%%%%%%%%%%%%%%%%%%%%%%%^^']@]'?%%%%%%%%%%%%%%%%%%%%%%%%%%%%",
"%%%%%%%%%%%%%%%%%%%%%%%%%%%%?^']@](?%%%%%%%%%%%%%%%%%%%%%%%%%%%%",
"%%%%%%%%%%%%%%%%%%%%%%%%%%%%+^)]@]$+%%%%%%%%%%%%%%%%%%%%%%%%%%%%",
"%%%%%%%%%%%%%%%%%%%%%%%%%%%%+^)]@]$+%%%%%%%%%%%%%%%%%%%%%%%%%%%%",
"%%%%%%%%%%%%%%%%%%%%%%%%%%%%+^)]@].?%%%%%%%%%%%%%%%%%%%%%%%%%%%%",
"%%%%%%%%%%%%%%%%%%%%%%%%%%%!+.$[:_.!%%%%%%%%%%%%%%%%%%%%%%%%%%%%",
"%%%%%%%%%%%%%%%%%%%%%%%%%%-&dd>**>d&!%%%%%%%%%%%%%%%%%%%%%%%%%%%",
"%%%%%%%%%%%%%%%%%%%%%%%%%-&&d>>**>d&!!%%%%%%%%%%%%%%%%%%%%%%%%%%",
"%%%%%%%%%%%%%%%%%%%%%%%%%-&dd>>**>dd&!%%%%%%%%%%%%%%%%%%%%%%%%%%"};
